<?xml version="1.0" standalone="no"?>
<!DOCTYPE svg PUBLIC "-//W3C//DTD SVG 20010904//EN"
 "http://www.w3.org/TR/2001/REC-SVG-20010904/DTD/svg10.dtd">
<svg version="1.0" xmlns="http://www.w3.org/2000/svg"
 width="300.000000pt" height="360.000000pt" viewBox="0 0 300.000000 360.000000"
 preserveAspectRatio="xMidYMid meet">
<metadata>
Created by potrace 1.10, written by Peter Selinger 2001-2011
</metadata>
<g transform="translate(0.000000,360.000000) scale(0.100000,-0.100000)"
fill="#000000" stroke="none">
<path d="M1372 3208 c-17 -17 -15 -47 4 -55 23 -9 51 23 38 44 -14 22 -27 26
-42 11z"/>
<path d="M1529 3211 c-37 -12 -70 -30 -111 -63 l-38 -30 -28 20 c-45 33 -93
37 -146 14 -144 -64 -97 -282 61 -282 103 0 172 95 139 192 -9 23 -14 43 -13
43 1 1 24 17 51 35 92 62 213 71 315 25 53 -25 121 -79 121 -97 0 -5 9 -18 20
-30 11 -12 20 -30 20 -39 0 -10 5 -19 10 -21 7 -2 5 -17 -5 -42 -17 -41 -14
-80 11 -107 12 -14 9 -19 -25 -47 -62 -50 -101 -152 -85 -224 11 -51 27 -31
20 25 -5 50 -4 55 23 81 15 15 41 51 55 81 32 61 66 82 109 66 41 -16 32 -24
-19 -18 -31 3 -42 1 -36 -5 20 -20 89 -14 123 11 21 16 34 20 37 13 2 -7 9
-12 16 -12 24 0 91 -61 113 -103 24 -45 29 -106 13 -172 -5 -22 -14 -41 -19
-43 -6 -2 -11 -9 -11 -16 0 -17 -28 -47 -65 -71 -24 -15 -49 -19 -122 -19 -56
-1 -93 3 -93 9 0 11 -64 55 -79 55 -5 0 -12 8 -15 18 -4 9 -16 28 -27 42 l-20
25 20 -41 c19 -40 94 -114 115 -114 5 0 -11 -14 -37 -31 -115 -76 -129 -243
-30 -343 85 -87 230 -87 317 0 64 64 84 170 47 249 -19 42 -86 113 -97 103
-11 -12 26 -66 54 -77 23 -10 31 -21 36 -49 16 -100 -1 -153 -71 -219 -53 -50
-56 -52 -79 -36 -15 9 -38 14 -61 11 -29 -4 -46 2 -86 29 -27 18 -55 33 -63
33 -11 0 -34 29 -34 43 0 3 16 1 35 -3 19 -4 35 -5 35 -1 0 3 5 -2 11 -12 16
-27 64 -47 98 -41 44 9 71 43 73 92 1 47 15 57 20 16 4 -34 34 -56 48 -34 13
20 13 126 0 150 -5 10 -30 28 -56 40 -55 27 -67 19 -70 -42 -1 -24 -2 -51 -3
-60 -2 -27 -41 -19 -41 9 0 29 -26 43 -63 32 -33 -9 -50 -28 -76 -82 -10 -22
-21 -34 -25 -29 -3 6 7 39 24 74 16 34 30 75 30 90 0 19 9 32 38 49 32 20 48
23 118 20 52 -2 84 1 88 8 4 6 16 11 27 11 35 0 116 91 133 151 20 65 20 82 1
145 -18 61 -70 124 -122 148 l-40 17 5 55 c4 51 3 55 -31 89 -28 28 -43 35
-73 35 -22 0 -52 -7 -68 -15 -35 -19 -36 -19 -36 0 0 49 -90 154 -165 193 -40
20 -67 26 -135 28 -47 2 -97 0 -111 -5z m-159 -104 c0 -5 -4 -6 -10 -2 -5 3
-10 -26 -12 -72 l-3 -78 -32 -3 c-17 -2 -34 -10 -37 -18 -3 -9 -1 -12 4 -9 6
3 10 1 10 -4 0 -6 7 -11 15 -11 8 0 15 5 15 10 0 6 7 10 15 10 22 0 35 34 35
94 0 54 11 73 24 40 19 -49 -2 -122 -44 -153 -36 -26 -73 -20 -89 15 -8 18
-19 24 -41 24 l-30 0 0 78 c0 43 2 81 4 83 8 8 176 4 176 -4z m-203 -86 l-2
-70 43 -11 c50 -12 54 -20 9 -20 -55 0 -69 17 -68 88 0 56 5 82 16 82 2 0 3
-31 2 -69z m853 -51 c-20 -13 -33 -13 -25 0 3 6 14 10 23 10 15 0 15 -2 2 -10z
m90 -22 c0 -6 -6 -5 -15 2 -8 7 -15 14 -15 16 0 2 7 1 15 -2 8 -4 15 -11 15
-16z m-30 -10 c11 -12 20 -30 20 -40 0 -11 5 -16 10 -13 6 4 10 -5 10 -19 0
-14 -5 -26 -11 -26 -5 0 -8 4 -4 10 7 11 -41 90 -55 90 -6 0 -1 -9 10 -20 11
-11 20 -25 20 -31 0 -14 -44 32 -53 55 -10 24 28 20 53 -6z m-70 -29 c4 -30 9
-35 40 -39 39 -6 49 -33 15 -38 -24 -3 -95 62 -95 88 0 45 33 36 40 -11z m-59
-34 c1 -16 3 -22 6 -13 4 15 7 15 29 -5 23 -20 23 -22 7 -29 -32 -12 -41 -8
-52 23 -14 41 -15 91 -1 69 5 -8 10 -28 11 -45z m90 12 c-13 -13 -26 -3 -16
12 3 6 11 8 17 5 6 -4 6 -10 -1 -17z m-794 7 c-3 -3 -12 -4 -19 -1 -8 3 -5 6
6 6 11 1 17 -2 13 -5z m854 -87 c-10 -9 -11 -8 -5 6 3 10 9 15 12 12 3 -3 0
-11 -7 -18z m-178 -44 c-10 -27 -51 -90 -63 -98 -27 -17 -1 42 39 88 29 32 33
33 24 10z m167 -474 c0 -5 15 -16 34 -24 18 -8 36 -22 40 -30 10 -27 7 -125
-4 -125 -5 0 -10 15 -10 33 0 37 -15 57 -42 57 -15 0 -18 -9 -18 -65 0 -53 -3
-66 -19 -75 -49 -25 -121 -1 -121 41 0 37 68 62 110 39 16 -9 18 -4 16 75 0
47 2 85 7 85 4 0 7 -5 7 -11z m-96 -78 c4 -5 -7 -12 -24 -16 -33 -7 -70 -48
-70 -76 0 -11 -4 -19 -10 -19 -18 0 -11 46 11 74 30 38 81 58 93 37z m6 -40
c0 -5 -11 -12 -25 -15 -14 -4 -31 -18 -37 -31 -6 -14 -15 -25 -20 -25 -15 0 2
43 24 63 21 18 58 23 58 8z m-33 -198 c-8 -7 -37 9 -31 19 3 5 12 4 20 -3 8
-6 13 -14 11 -16z m94 -24 c-16 -6 -28 -6 -35 1 -7 7 1 10 25 9 32 0 33 -1 10
-10z"/>
<path d="M1238 3086 c-17 -8 -24 -21 -26 -48 -3 -30 1 -40 23 -54 32 -21 69
-8 87 30 22 49 -34 97 -84 72z m55 -24 c10 -11 14 -26 10 -40 -5 -22 -23 -31
-23 -12 0 6 -7 10 -16 10 -8 0 -12 -4 -9 -10 3 -5 -1 -10 -9 -10 -23 0 -24 43
-1 62 25 22 28 22 48 0z"/>
<path d="M1260 3049 c0 -5 5 -7 10 -4 6 3 10 8 10 11 0 2 -4 4 -10 4 -5 0 -10
-5 -10 -11z"/>
<path d="M1635 3163 c-11 -3 -24 -11 -28 -19 -4 -7 -27 -18 -50 -25 -73 -19
-116 -75 -91 -119 16 -31 18 -66 3 -76 -8 -4 -10 -26 -6 -64 5 -46 3 -59 -8
-64 -8 -3 -15 -10 -15 -15 0 -7 10 -6 28 1 39 17 47 25 35 40 -20 25 -24 72
-9 93 20 26 20 59 1 75 -37 30 8 100 65 100 16 0 30 4 30 10 0 16 56 40 93 40
41 0 87 -38 87 -72 0 -13 -7 -33 -15 -45 -11 -15 -12 -28 -6 -45 6 -13 10 -18
11 -13 5 35 10 49 24 64 22 25 20 47 -10 86 -34 45 -82 62 -139 48z"/>
<path d="M1586 3083 c-21 -21 16 -83 49 -83 21 0 19 43 -2 62 -26 22 -39 28
-47 21z m39 -52 c-6 -5 -25 10 -25 20 0 5 6 4 14 -3 8 -7 12 -15 11 -17z"/>
<path d="M1950 3075 c-14 -17 -5 -51 16 -59 22 -8 54 11 54 32 0 38 -46 56
-70 27z m40 -25 c0 -5 -4 -10 -10 -10 -5 0 -10 5 -10 10 0 6 5 10 10 10 6 0
10 -4 10 -10z"/>
<path d="M1050 3065 c-19 -23 -8 -50 20 -50 16 0 26 6 28 18 4 18 -14 47 -28
47 -4 0 -13 -7 -20 -15z"/>
<path d="M1835 3070 c-3 -5 -1 -10 4 -10 6 0 11 5 11 10 0 6 -2 10 -4 10 -3 0
-8 -4 -11 -10z"/>
<path d="M952 2980 c-59 -37 -77 -125 -35 -172 11 -12 13 -21 6 -30 -6 -7 -16
-29 -22 -49 -11 -34 -14 -36 -52 -36 -75 0 -119 -73 -82 -136 19 -32 19 -32
-5 -67 -32 -47 -28 -127 9 -166 28 -31 76 -57 92 -51 7 2 1 10 -13 17 -14 7
-40 28 -57 47 -38 40 -44 90 -17 146 16 33 18 34 63 29 25 -2 52 -9 59 -15 14
-11 16 -43 2 -52 -16 -10 -12 -35 6 -35 9 0 18 9 21 19 10 40 59 34 51 -5 -2
-12 -12 -19 -26 -19 -13 0 -32 -11 -41 -24 -20 -26 -51 -23 -51 4 0 8 -6 15
-12 16 -7 1 -22 2 -33 3 -23 1 -33 35 -14 46 17 11 36 2 42 -21 7 -25 37 -25
37 1 0 11 -5 20 -11 20 -7 0 -9 10 -6 25 4 24 3 25 -14 9 -10 -9 -22 -13 -27
-10 -6 3 -20 -2 -32 -12 -31 -25 -21 -67 17 -77 16 -4 36 -15 46 -26 24 -26
43 -24 72 7 14 15 25 23 25 19 0 -4 10 -1 23 8 19 12 26 12 40 2 16 -11 14
-14 -15 -26 -51 -21 -109 -79 -134 -134 -28 -60 -32 -156 -9 -212 38 -90 125
-157 220 -168 l51 -7 -20 -43 c-14 -30 -25 -41 -36 -37 -30 10 -50 36 -50 64
0 17 -4 27 -10 23 -5 -3 -10 -21 -10 -39 0 -38 26 -66 61 -66 23 0 24 -3 24
-63 1 -49 7 -73 30 -115 16 -30 40 -62 53 -73 l24 -19 -26 -30 c-68 -81 -24
-206 79 -226 51 -9 85 3 126 46 39 41 51 77 40 118 -6 22 -13 26 -51 29 -56 4
-65 13 -13 13 59 0 130 25 174 60 22 17 39 26 39 21 0 -5 -4 -13 -10 -16 -14
-9 -12 -45 3 -47 6 0 -10 -4 -38 -7 -46 -5 -50 -8 -48 -31 1 -14 0 -18 -3 -7
-12 41 -46 0 -37 -46 3 -15 0 -34 -7 -42 -16 -19 -5 -50 27 -75 31 -24 99 -27
129 -6 18 13 26 13 60 1 50 -18 98 -18 148 0 28 10 45 11 59 4 27 -15 64 -3
83 26 13 21 14 30 5 53 -9 22 -9 35 4 65 21 51 19 123 -7 177 -15 33 -22 40
-25 27 -3 -10 1 -25 8 -33 13 -16 17 -136 5 -171 -6 -18 -14 -22 -43 -21 -46
2 -77 -32 -69 -74 5 -25 3 -27 -37 -33 -23 -3 -68 -5 -100 -3 -53 3 -57 5 -51
23 3 11 8 35 11 53 5 32 16 41 28 22 3 -5 26 -10 51 -10 25 0 54 -5 65 -10 23
-13 25 -3 3 21 -11 13 -25 16 -49 12 -47 -8 -99 13 -135 54 -27 30 -30 41 -26
77 2 22 15 61 27 86 18 35 23 61 23 115 0 39 -5 78 -11 89 -17 30 -22 5 -9
-45 l12 -47 -52 -46 c-50 -44 -73 -84 -89 -159 -4 -22 -10 -27 -25 -22 -10 3
-24 0 -32 -8 -11 -12 -18 -11 -47 12 -28 21 -45 26 -95 26 -64 0 -74 5 -114
59 -25 33 -38 76 -46 147 -5 38 -2 49 14 64 13 12 20 31 20 57 0 29 4 38 18
38 28 1 96 35 134 69 20 17 39 28 42 23 3 -5 21 -8 40 -7 28 3 35 -1 39 -18 2
-12 8 -30 12 -39 6 -15 3 -16 -24 -8 -40 11 -140 3 -166 -15 -29 -18 -41 -67
-38 -155 4 -163 12 -172 151 -168 99 3 106 4 123 28 13 18 19 45 20 97 2 62 5
75 25 94 13 13 24 28 24 36 0 7 11 13 25 13 29 0 31 7 9 38 -14 20 -14 22 3
22 11 0 24 5 31 12 15 15 16 0 2 -36 -14 -39 12 -34 57 11 21 22 33 29 28 18
-16 -35 -18 -130 -3 -142 21 -16 148 -34 211 -29 81 6 100 25 94 91 -3 27 -8
61 -13 73 -7 24 -7 24 19 -2 14 -14 31 -26 37 -26 7 0 8 -6 2 -17 -5 -10 -12
-34 -16 -54 -7 -38 -69 -119 -91 -119 -8 0 -18 -8 -23 -17 -9 -15 -13 -14 -43
12 -49 40 -117 67 -164 63 l-40 -3 -14 53 c-14 53 -31 70 -31 30 1 -34 34
-100 66 -130 130 -121 352 -40 371 137 4 29 10 45 19 45 24 0 54 39 53 68 0
25 -1 25 -12 8 -7 -10 -21 -30 -31 -44 l-20 -25 -17 39 c-17 37 -18 37 -18 12
-1 -35 -17 -36 -25 -3 -4 14 -13 25 -21 25 -11 0 -15 -20 -17 -92 l-3 -93
-127 -3 -128 -3 -2 83 c-1 46 0 104 1 130 2 26 -2 55 -8 65 -6 11 -11 13 -11
5 0 -7 -8 -23 -17 -36 l-17 -22 -21 23 c-28 34 -52 23 -47 -22 4 -33 3 -35
-27 -35 -29 0 -31 3 -31 35 0 19 -4 35 -10 35 -19 0 -10 19 16 36 22 15 27 15
40 2 12 -12 25 -13 62 -6 56 10 142 50 167 78 28 31 10 36 -27 8 -50 -38 -100
-61 -107 -50 -14 22 -78 52 -111 52 -19 0 -52 -9 -71 -19 l-37 -20 -23 25
c-12 13 -28 24 -35 24 -7 0 -17 23 -24 54 -11 56 -70 160 -77 138 -9 -23 18
-108 47 -152 19 -29 26 -48 20 -59 -5 -9 -18 -43 -30 -76 -20 -58 -23 -61 -71
-78 -28 -10 -67 -33 -87 -52 -34 -30 -39 -32 -57 -18 -13 9 -33 13 -59 10 -43
-6 -46 -4 -121 68 -74 70 -94 157 -61 265 11 37 18 46 42 51 43 8 79 35 100
74 10 19 19 35 20 35 1 0 18 -7 37 -15 20 -8 65 -15 100 -15 45 0 68 -5 77
-15 7 -8 17 -15 23 -15 5 0 2 8 -7 19 -15 17 -15 19 -1 25 27 10 33 7 28 -14
-4 -14 0 -20 11 -20 18 0 20 8 7 29 -7 11 1 22 29 42 84 61 125 151 118 257
-3 37 -13 82 -22 100 -21 41 -84 112 -100 112 -6 0 4 -14 22 -31 39 -37 79
-113 88 -168 5 -34 4 -40 -8 -36 -37 15 -138 191 -122 216 3 5 0 9 -6 9 -19 0
-6 -91 18 -130 32 -51 31 -143 -3 -192 -83 -122 -255 -107 -316 27 -23 49 -24
84 -4 133 21 49 52 81 100 103 54 25 92 24 148 -5 49 -24 57 -24 33 0 -23 22
-68 37 -108 36 l-38 -1 0 44 c0 42 -2 45 -27 46 -26 1 -27 1 -5 8 l23 6 -30
29 c-40 38 -103 45 -149 16z m51 -17 c-7 -2 -19 -2 -25 0 -7 3 -2 5 12 5 14 0
19 -2 13 -5z m73 -8 c10 -8 14 -15 8 -15 -12 0 -11 -24 1 -54 5 -11 3 -21 -4
-25 -7 -4 -11 -14 -9 -22 2 -8 -7 -15 -19 -17 -13 -2 -23 -8 -23 -13 0 -5 -7
-9 -15 -9 -8 0 -15 5 -15 10 0 6 -7 10 -16 10 -9 0 -18 9 -21 20 -3 11 -9 20
-14 20 -5 0 -7 -11 -3 -24 3 -13 1 -27 -4 -30 -5 -3 -12 8 -14 24 -3 16 0 31
6 33 8 3 8 10 0 23 -9 15 -8 26 3 47 8 16 17 26 21 23 3 -4 0 -12 -6 -18 -14
-14 -16 -48 -3 -48 5 0 11 10 13 23 2 12 9 21 17 19 8 -2 18 3 22 10 7 11 12
11 30 0 15 -10 25 -10 32 -3 7 7 6 12 -4 15 -42 13 -44 14 -23 15 11 1 29 -6
40 -14z m44 -100 c0 -8 -4 -15 -10 -15 -5 0 -7 7 -4 15 4 8 8 15 10 15 2 0 4
-7 4 -15z m-125 -65 c8 -13 -5 -13 -25 0 -13 8 -13 10 2 10 9 0 20 -4 23 -10z
m-40 -20 c3 -5 15 -10 25 -10 28 0 33 -16 13 -46 -22 -34 -22 -118 0 -159 44
-83 103 -119 186 -112 76 6 87 9 117 38 54 49 77 98 72 151 l-5 48 43 -38 c23
-20 43 -40 43 -44 1 -3 -15 -16 -34 -28 -39 -24 -83 -84 -107 -145 -9 -23 -24
-42 -34 -44 -11 -2 -22 -7 -25 -12 -3 -5 -24 -3 -48 6 -24 8 -72 15 -107 15
l-64 0 0 31 c0 46 -29 98 -64 115 l-31 16 26 -24 c15 -13 34 -41 43 -62 l16
-38 -38 33 c-20 17 -41 38 -45 46 -17 28 -27 11 -11 -19 l16 -33 -25 30 c-14
16 -23 33 -20 37 2 5 -13 8 -34 9 l-38 1 30 13 c35 16 10 20 -30 5 -23 -9 -27
-7 -35 16 -23 60 6 108 63 102 30 -3 32 -5 34 -48 5 -89 20 -112 41 -65 18 39
14 79 -8 108 -20 25 -20 28 -5 56 8 17 15 37 15 46 0 17 16 20 25 5z m-35
-176 c0 -19 -4 -34 -10 -34 -5 0 -10 18 -10 41 0 24 4 38 10 34 6 -3 10 -22
10 -41z m490 -92 c-32 -52 -67 -89 -76 -80 -14 15 67 126 93 127 8 1 1 -19
-17 -47z m-430 -177 c-7 -8 -17 -15 -23 -15 -6 0 -2 7 9 15 25 19 30 19 14 0z
m428 -240 c15 -14 46 -33 70 -42 34 -12 40 -18 28 -25 -9 -5 -13 -15 -9 -25 4
-10 2 -14 -4 -10 -6 4 -16 0 -23 -8 -11 -13 -10 -14 2 -10 11 4 18 -2 22 -19
14 -54 90 -62 116 -11 8 17 16 32 18 34 1 2 5 1 8 -2 12 -12 -17 -64 -42 -76
-39 -17 -63 -13 -93 17 -15 15 -40 33 -55 40 -22 10 -26 16 -20 35 4 12 9 24
13 27 10 8 13 40 3 40 -11 0 -32 -45 -32 -70 0 -16 -7 -19 -40 -17 -22 1 -40
3 -40 5 0 1 9 20 20 42 11 22 20 53 20 70 0 36 3 37 38 5z m211 -3 c48 -24 51
-42 7 -42 -19 0 -38 5 -41 11 -4 6 -21 9 -39 8 -53 -3 -66 0 -60 15 11 29 84
33 133 8z m61 -171 c-13 -51 -35 -68 -25 -20 4 19 11 36 16 37 5 2 9 11 9 20
0 8 3 13 6 10 3 -3 0 -24 -6 -47z m-425 9 c-3 -5 -12 -10 -18 -10 -7 0 -6 4 3
10 19 12 23 12 15 0z m222 -25 c15 -13 24 -28 20 -32 -4 -4 -22 7 -40 25 -37
37 -19 44 20 7z m-257 11 c0 -3 -4 -8 -10 -11 -5 -3 -10 -1 -10 4 0 6 5 11 10
11 6 0 10 -2 10 -4z m250 -83 l0 -27 30 29 c26 25 30 26 36 11 5 -12 -4 -29
-29 -54 -35 -36 -36 -39 -39 -127 l-3 -90 -104 -3 c-114 -3 -131 3 -131 48 0
16 -6 31 -12 34 -10 5 -10 7 0 12 6 3 12 16 12 29 0 13 -6 26 -12 29 -10 5
-10 7 0 12 6 3 12 17 12 30 0 14 -4 22 -10 19 -5 -3 -10 1 -10 10 0 9 4 14 9
10 5 -3 11 9 13 27 l3 33 100 5 c115 6 135 0 135 -37z m305 -143 c3 -5 15 -10
26 -10 10 0 29 -10 41 -22 21 -21 21 -22 3 -28 -27 -9 -96 9 -118 32 -10 10
-23 18 -30 18 -7 0 -6 4 3 10 20 13 67 13 75 0z m-185 -49 c0 -6 -5 -13 -11
-16 -6 -4 -8 -13 -5 -20 5 -15 -60 -95 -77 -95 -7 0 -6 4 3 10 10 6 11 10 3
10 -19 0 3 50 40 88 31 32 47 40 47 23z m-259 -161 c27 -22 22 -25 -15 -10
-14 5 -26 14 -26 20 0 16 15 12 41 -10z m-101 -15 l25 -13 -30 -7 c-17 -4 -35
-8 -41 -10 -8 -2 -8 3 0 21 13 28 13 28 46 9z m100 -45 c38 0 43 -10 15 -32
-20 -15 -23 -24 -18 -54 l6 -36 -32 17 c-30 15 -35 15 -56 1 -33 -22 -35 -21
-28 17 4 24 0 37 -16 51 -29 26 -26 36 9 36 23 0 33 7 46 32 l17 33 15 -33
c12 -24 22 -32 42 -32z m220 -20 c6 -11 17 -20 26 -20 12 0 14 -8 8 -37 -9
-53 -9 -53 -70 -53 -58 0 -58 0 -68 58 -4 26 -2 32 12 32 9 0 23 9 30 20 7 11
21 20 32 20 10 0 24 -9 30 -20z m-356 -78 c-7 -35 13 -47 51 -30 18 8 32 8 55
-2 38 -16 50 -4 50 46 0 30 30 70 43 57 18 -17 5 -61 -25 -90 -61 -57 -108
-65 -164 -28 -30 20 -57 78 -49 105 6 20 7 20 26 -4 13 -17 17 -33 13 -54z
m686 20 c0 -14 -38 -51 -52 -52 -13 0 -9 24 6 46 17 24 46 28 46 6z m16 -59
c-48 -41 -64 -27 -21 18 33 32 41 37 44 23 2 -10 -8 -28 -23 -41z m-335 -25
c-27 -9 -81 -7 -81 4 0 8 68 15 89 9 10 -3 7 -7 -8 -13z"/>
<path d="M986 2899 c-17 -24 -12 -45 14 -59 25 -14 49 -2 56 26 12 48 -41 73
-70 33z m47 -12 c3 -8 1 -20 -3 -27 -7 -11 -11 -10 -23 2 -12 11 -13 18 -4 27
15 15 24 14 30 -2z"/>
<path d="M1252 1710 l1 -130 98 0 99 0 0 76 0 77 -21 -27 c-22 -28 -65 -37
-55 -11 4 12 -4 15 -44 15 -28 0 -50 5 -50 10 0 6 28 10 63 10 53 0 67 4 85
23 13 14 22 36 22 55 l0 32 -99 0 -99 0 0 -130z m176 78 c-3 -9 -30 -14 -76
-16 -60 -2 -72 0 -72 13 0 12 14 15 76 15 56 0 75 -3 72 -12z m2 -138 c0 -6
-32 -10 -75 -10 -43 0 -75 4 -75 10 0 6 32 10 75 10 43 0 75 -4 75 -10z m-62
-37 c-15 -2 -42 -2 -60 0 -18 2 -6 4 27 4 33 0 48 -2 33 -4z"/>
<path d="M1255 1396 c-22 -16 -15 -50 11 -54 25 -4 47 19 38 41 -8 22 -29 28
-49 13z"/>
<path d="M1497 1394 c-14 -14 -6 -24 19 -24 16 0 24 5 22 13 -5 14 -31 21 -41
11z"/>
<path d="M1490 1346 c0 -9 5 -16 10 -16 6 0 10 4 10 9 0 6 -4 13 -10 16 -5 3
-10 -1 -10 -9z"/>
<path d="M1527 1353 c-11 -10 -8 -53 3 -53 6 0 10 14 10 30 0 31 -2 35 -13 23z"/>
<path d="M1490 1310 c0 -5 5 -10 10 -10 6 0 10 5 10 10 0 6 -4 10 -10 10 -5 0
-10 -4 -10 -10z"/>
<path d="M1626 2975 c-11 -8 -34 -15 -52 -15 -17 0 -37 -7 -44 -15 -10 -12 -9
-15 4 -15 26 0 41 -43 27 -81 -16 -46 -14 -56 12 -63 22 -6 22 -6 -5 -20 -16
-8 -44 -16 -63 -18 -46 -4 -50 -22 -5 -26 19 -2 40 -9 45 -16 13 -16 150 -15
167 2 6 6 29 12 50 12 24 0 45 7 58 20 19 19 19 19 -12 50 -27 28 -29 34 -19
56 18 39 14 52 -31 100 -34 36 -47 44 -77 44 -20 0 -45 -7 -55 -15z m90 -17
c3 -4 -4 -9 -15 -13 -12 -3 -21 -11 -21 -16 0 -5 -17 -7 -40 -3 -28 5 -40 3
-40 -5 0 -7 -4 -9 -10 -6 -16 10 -12 25 8 25 9 0 25 7 34 14 17 12 72 15 84 4z
m44 -43 c12 -14 10 -44 -5 -92 -6 -17 -1 -25 24 -37 47 -25 41 -45 -11 -39
-24 3 -55 10 -71 16 l-27 12 21 16 c18 13 19 19 10 37 -15 28 -14 89 2 95 23
10 45 7 57 -8z m-105 -22 c17 -16 16 -42 -1 -100 -4 -16 0 -24 22 -35 56 -27
41 -38 -50 -38 -71 0 -84 2 -80 15 3 8 14 17 24 20 29 9 45 34 32 47 -7 7 -12
28 -12 48 0 56 32 77 65 43z"/>
<path d="M827 2789 c-39 -22 -4 -79 35 -58 10 5 18 18 18 29 0 25 -30 41 -53
29z m23 -23 c0 -3 -4 -8 -10 -11 -5 -3 -10 -1 -10 4 0 6 5 11 10 11 6 0 10 -2
10 -4z"/>
<path d="M1126 2783 c-14 -14 -20 -15 -23 -5 -7 18 -33 -4 -32 -27 0 -12 2
-12 8 3 7 19 8 19 13 -2 4 -15 2 -22 -8 -22 -15 0 -19 -12 -7 -23 9 -10 35 31
28 43 -3 6 -2 10 3 10 14 0 23 -28 11 -36 -5 -3 -7 -15 -3 -26 4 -15 3 -18 -6
-13 -9 5 -11 4 -6 -3 4 -7 1 -12 -9 -12 -8 0 -18 -6 -21 -14 -3 -9 -12 -12
-22 -9 -12 5 -14 2 -9 -11 4 -10 7 -19 7 -22 0 -2 7 -1 15 2 8 3 27 0 43 -7
24 -10 28 -17 25 -43 -11 -92 -10 -96 38 -96 46 0 79 14 79 34 0 15 27 30 47
27 10 -1 26 28 28 51 0 3 3 9 7 13 4 4 2 15 -5 25 -10 17 -12 17 -24 2 -11
-15 -12 -16 -13 -1 0 18 -30 48 -30 31 0 -6 5 -12 12 -14 9 -3 9 -6 0 -12 -7
-4 -16 3 -24 18 -6 14 -17 26 -24 26 -7 0 -14 6 -17 13 -3 9 -8 9 -17 1 -9 -9
-4 -14 18 -22 17 -6 33 -20 37 -31 3 -12 10 -21 15 -21 5 0 2 -12 -6 -27 -7
-16 -14 -33 -14 -39 0 -6 -7 -17 -15 -24 -13 -10 -15 -9 -16 11 -1 13 -2 29
-4 34 -1 6 -3 16 -3 23 -1 6 -10 12 -21 12 -21 0 -34 33 -19 48 6 6 10 27 10
49 0 21 3 32 5 26 5 -15 39 -17 48 -4 3 5 1 12 -4 15 -5 4 -11 0 -14 -6 -2 -7
-8 -10 -12 -6 -4 4 -2 14 5 23 14 16 40 20 40 6 0 -5 9 -7 20 -4 11 3 20 10
20 16 0 6 -3 7 -7 4 -3 -4 -11 0 -17 8 -6 8 -25 17 -42 21 -24 4 -31 2 -32
-10 -1 -9 -3 -22 -4 -29 -1 -7 -10 -14 -21 -14 -11 -1 -17 1 -13 4 3 3 1 12
-5 19 -9 11 -6 16 12 23 14 6 17 10 9 10 -9 1 -24 -7 -34 -16z m24 -82 c0 -67
-23 -99 -49 -67 -9 11 -6 17 15 31 18 11 24 23 21 36 -3 10 -1 19 4 19 5 0 9
-8 9 -19z m39 -160 c15 -52 15 -53 -16 -49 -29 3 -29 4 -21 74 4 32 24 18 37
-25z m115 41 c2 -4 1 -14 -5 -22 -7 -12 -9 -12 -9 4 0 16 -2 16 -20 -5 -22
-27 -27 -19 -8 11 13 21 33 26 42 12z"/>
<path d="M2035 2749 c-35 -18 -54 -55 -56 -109 -2 -43 -6 -53 -24 -60 -32 -12
-47 -35 -39 -64 9 -38 59 -84 98 -91 72 -14 157 40 172 109 3 17 13 40 20 50
7 11 11 30 8 43 -4 13 -1 30 6 37 9 12 6 18 -16 33 -16 10 -39 28 -53 41 -26
24 -80 29 -116 11z m115 -39 c15 -16 36 -30 45 -30 14 0 13 -4 -6 -19 -23 -18
-23 -20 -6 -38 20 -23 22 -34 3 -27 -9 4 -15 -7 -20 -36 -12 -75 -51 -110
-121 -110 -50 0 -82 18 -100 57 -19 39 -15 47 23 48 26 0 27 2 32 67 4 52 10
72 29 92 35 37 84 35 121 -4z"/>
<path d="M2103 2674 c-7 -20 17 -37 34 -23 15 13 6 39 -13 39 -8 0 -17 -7 -21
-16z"/>
<path d="M2021 2558 c-19 -31 -19 -34 -4 -45 26 -20 62 -15 88 12 26 25 32 50
15 60 -6 3 -10 -4 -10 -17 0 -33 -18 -48 -58 -48 l-34 0 22 35 c12 19 17 35
12 35 -6 0 -19 -15 -31 -32z"/>
<path d="M1235 2690 c-3 -5 -1 -10 4 -10 6 0 11 5 11 10 0 6 -2 10 -4 10 -3 0
-8 -4 -11 -10z"/>
<path d="M1011 2637 c-2 -52 21 -100 61 -131 35 -26 62 -36 40 -14 -7 7 -12
20 -12 30 0 10 -9 26 -20 35 -11 10 -20 22 -20 29 0 6 -9 19 -19 28 -11 10
-22 28 -24 40 -2 11 -5 4 -6 -17z m57 -102 c-3 -3 -9 2 -12 12 -6 14 -5 15 5
6 7 -7 10 -15 7 -18z"/>
<path d="M1503 2618 c-18 -6 -33 -14 -33 -18 0 -29 190 -52 252 -31 25 9 34 9
37 0 8 -24 55 -61 60 -48 2 7 -10 25 -28 39 l-31 27 25 11 c14 6 25 16 25 22
0 16 -18 12 -39 -11 -18 -20 -20 -20 -52 -3 -41 21 -169 28 -216 12z m186 -17
c33 -14 40 -19 27 -24 -29 -11 -146 -8 -189 5 l-40 12 29 13 c41 17 122 15
173 -6z"/>
<path d="M1459 2504 c-18 -19 -20 -34 -18 -113 1 -50 -1 -94 -5 -98 -3 -3 -6
-15 -6 -25 0 -10 -4 -18 -9 -18 -18 0 -18 -49 0 -66 15 -13 47 -17 178 -19
160 -3 160 -3 176 21 15 23 14 28 -3 68 -16 36 -19 59 -15 132 5 84 4 90 -18
111 -21 19 -37 22 -142 25 -110 3 -120 1 -138 -18z m269 -101 l3 -93 -26 0
c-14 0 -25 -5 -25 -11 0 -5 10 -9 22 -7 18 2 27 -6 45 -40 13 -24 21 -48 17
-53 -6 -10 -327 -13 -337 -3 -3 4 5 28 18 54 21 41 27 47 50 43 14 -3 25 -1
25 5 0 6 -12 12 -27 14 -28 3 -28 4 -31 81 -2 51 1 84 9 93 9 12 37 14 133 12
l121 -3 3 -92z"/>
<path d="M1583 2472 l-103 -3 0 -69 0 -70 115 0 115 0 0 69 c0 47 -4 70 -12
72 -7 2 -59 3 -115 1z m98 -31 c0 -3 2 -23 4 -43 2 -21 1 -39 -3 -39 -30 -6
-131 -8 -149 -4 -19 4 -23 12 -23 44 0 21 2 40 4 42 7 7 166 7 167 0z"/>
<path d="M1546 2243 c-18 -18 -1 -28 49 -28 44 0 55 3 55 17 0 13 -10 16 -49
16 -27 1 -52 -2 -55 -5z"/>
<path d="M2270 2424 c0 -3 9 -17 20 -31 27 -34 25 -55 -6 -92 -14 -17 -21 -31
-14 -31 44 0 76 60 58 110 -11 32 -58 68 -58 44z"/>
<path d="M1877 2413 c-8 -13 3 -83 14 -83 11 0 11 47 0 74 -4 11 -10 15 -14 9z"/>
<path d="M965 2273 c-40 -10 -45 -22 -45 -118 0 -123 1 -125 62 -125 40 0 49
-3 44 -15 -3 -8 0 -14 7 -12 7 1 13 -12 15 -33 4 -42 15 -50 68 -50 46 0 64
14 64 50 0 28 14 54 30 56 5 1 21 2 34 3 44 2 54 22 50 108 -2 43 -7 92 -12
108 l-8 30 -145 1 c-79 1 -153 0 -164 -3z m305 -118 l0 -105 -49 0 c-46 0 -49
-1 -55 -31 -3 -17 -6 -42 -6 -55 0 -22 -4 -24 -45 -24 -43 0 -45 1 -45 30 0
17 -7 42 -16 55 -14 21 -24 25 -65 25 l-49 0 0 105 0 105 165 0 165 0 0 -105z"/>
<path d="M960 2155 l0 -85 36 0 c32 0 35 2 24 15 -9 11 -10 19 -3 26 7 7 15 4
26 -12 15 -21 16 -20 19 35 4 66 21 79 28 21 4 -29 10 -41 24 -43 37 -7 67
-22 61 -32 -4 -6 10 -10 34 -10 l41 0 0 85 0 85 -145 0 -145 0 0 -85z m270 0
c0 -36 -3 -65 -7 -65 -5 0 -29 10 -54 22 -38 18 -49 29 -58 60 -9 30 -17 38
-35 38 -24 0 -35 -16 -37 -48 0 -9 -13 -27 -30 -40 l-29 -24 0 61 0 61 125 0
125 0 0 -65z"/>
<path d="M783 2263 c-20 -7 -15 -51 6 -63 15 -7 23 -6 35 6 34 34 4 76 -41 57z"/>
<path d="M1785 2041 c-30 -7 -75 -29 -75 -35 0 -2 11 -6 25 -8 13 -3 22 -2 20
2 -6 9 30 20 68 20 19 0 27 4 25 13 -6 15 -24 17 -63 8z"/>
<path d="M1726 1954 c-3 -9 -6 -17 -6 -19 0 -1 55 -3 122 -3 107 0 119 1 93
12 -17 7 -66 14 -109 15 -44 1 -83 4 -87 7 -4 2 -10 -3 -13 -12z"/>
<path d="M1762 1887 c72 -62 74 -63 114 -31 82 65 85 59 -37 59 l-111 0 34
-28z m96 -13 c-13 -14 -19 -14 -39 -3 -24 13 -24 13 11 19 43 7 48 4 28 -16z"/>
<path d="M1725 1830 c0 -33 2 -60 5 -60 3 0 20 14 38 30 l32 30 -32 30 c-18
16 -35 30 -38 30 -3 0 -5 -27 -5 -60z"/>
<path d="M1910 1860 l-35 -29 35 -30 35 -29 3 29 c2 16 2 42 0 58 l-3 30 -35
-29z"/>
<path d="M1771 1784 l-44 -34 109 0 109 1 -39 32 c-52 42 -81 42 -135 1z m89
6 c8 -5 11 -12 7 -16 -3 -4 -13 -2 -21 5 -11 9 -15 9 -19 -1 -2 -7 -8 -9 -13
-5 -7 7 12 27 26 27 3 0 12 -4 20 -10z"/>
<path d="M1639 1606 c-14 -9 -34 -26 -43 -40 l-16 -25 36 24 c39 26 110 34
156 16 76 -29 101 -112 52 -170 -16 -19 -24 -38 -20 -48 5 -12 15 -3 42 38 27
42 34 61 30 86 -8 52 -34 81 -94 104 -77 28 -112 32 -143 15z"/>
<path d="M1646 1531 c-4 -5 23 -11 60 -13 63 -3 81 1 67 16 -10 10 -121 7
-127 -3z"/>
<path d="M1640 1480 c0 -6 28 -10 64 -10 36 0 68 5 71 10 4 6 -20 10 -64 10
-41 0 -71 -4 -71 -10z"/>
<path d="M1640 1440 c0 -6 30 -10 71 -10 44 0 68 4 64 10 -3 6 -35 10 -71 10
-36 0 -64 -4 -64 -10z"/>
<path d="M1186 1178 c-20 -28 -20 -48 -2 -73 11 -16 11 -23 -3 -47 -15 -26
-15 -30 0 -56 14 -24 14 -31 3 -47 -20 -27 -17 -53 10 -80 15 -15 20 -28 15
-37 -26 -41 6 -88 60 -88 35 0 75 -26 163 -107 45 -41 50 -43 108 -43 58 0 63
2 108 43 96 87 128 107 171 107 30 0 43 5 51 19 13 25 13 68 0 76 -6 4 0 15
15 27 29 22 34 68 10 88 -14 12 -14 15 0 30 19 21 19 64 0 80 -13 11 -13 15 0
33 19 28 19 62 -1 81 -13 14 -60 16 -354 16 -339 0 -339 0 -354 -22z m691 -24
c3 -8 0 -26 -7 -39 -10 -19 -10 -30 0 -55 10 -24 10 -37 1 -57 -9 -19 -9 -33
1 -59 11 -31 10 -36 -9 -56 -19 -19 -24 -20 -39 -7 -26 21 -543 21 -569 -1
-15 -13 -19 -12 -36 9 -23 28 -23 40 -4 65 13 17 12 23 -3 48 -16 27 -16 31
-1 57 14 24 15 31 2 55 -30 57 -33 56 327 56 291 0 331 -2 337 -16z m-112
-294 c-77 -10 -360 -10 -445 0 -39 4 47 7 220 7 172 0 261 -3 225 -7z m-496
-22 c19 -20 522 -18 545 1 21 18 39 3 34 -30 -2 -20 -10 -25 -44 -29 -41 -6
-85 -35 -171 -112 -37 -33 -49 -38 -93 -38 -44 0 -56 5 -93 38 -99 89 -133
112 -170 112 -41 0 -51 11 -43 46 7 27 16 30 35 12z"/>
<path d="M1288 1113 c-42 -7 -54 -28 -26 -47 20 -14 59 -16 280 -16 228 1 260
3 279 19 20 16 20 18 4 31 -15 12 -65 15 -264 16 -135 1 -258 0 -273 -3z m394
-30 c-78 -2 -206 -2 -285 0 -78 1 -14 3 143 3 157 0 221 -2 142 -3z"/>
<path d="M1293 1003 c-46 -6 -60 -27 -31 -47 19 -14 61 -16 279 -16 232 0 259
2 279 18 21 17 21 19 5 32 -15 12 -64 15 -259 16 -133 1 -255 -1 -273 -3z
m389 -30 c-78 -2 -206 -2 -285 0 -78 1 -14 3 143 3 157 0 221 -2 142 -3z"/>
</g>
</svg>
